<svg width="27" height="27" viewBox="0 0 27 27" fill="none" xmlns="http://www.w3.org/2000/svg">
<g filter="url(#filter0_i_1407_1852)">
<circle cx="13.5" cy="13.5" r="13.5" fill="#00D069"/>
</g>
<g clip-path="url(#clip0_1407_1852)">
<path d="M8.29199 11.1592L15.7372 5.74042" stroke="white" stroke-width="2" stroke-linecap="round" stroke-linejoin="round"/>
<path d="M14.0732 13.084L18.6549 9.74936" stroke="white" stroke-width="2" stroke-linecap="round" stroke-linejoin="round"/>
<path d="M16.9912 17.0928L21.5728 13.7582" stroke="white" stroke-width="2" stroke-linecap="round" stroke-linejoin="round"/>
<path d="M7.5127 16.1064C7.73379 16.4102 8.06651 16.6137 8.43766 16.6722C8.80881 16.7307 9.18798 16.6393 9.49176 16.4182L11.2099 15.1677" stroke="white" stroke-width="2" stroke-linecap="round" stroke-linejoin="round"/>
<path d="M5.42871 13.2432L10.4306 20.1156C10.6517 20.4194 10.9845 20.6229 11.3556 20.6814C11.7268 20.7398 12.1059 20.6485 12.4097 20.4274L14.1278 19.1769" stroke="white" stroke-width="2" stroke-linecap="round" stroke-linejoin="round"/>
</g>
<defs>
<filter id="filter0_i_1407_1852" x="0" y="0" width="27" height="28" filterUnits="userSpaceOnUse" color-interpolation-filters="sRGB">
<feFlood flood-opacity="0" result="BackgroundImageFix"/>
<feBlend mode="normal" in="SourceGraphic" in2="BackgroundImageFix" result="shape"/>
<feColorMatrix in="SourceAlpha" type="matrix" values="0 0 0 0 0 0 0 0 0 0 0 0 0 0 0 0 0 0 127 0" result="hardAlpha"/>
<feOffset dy="1"/>
<feGaussianBlur stdDeviation="2"/>
<feComposite in2="hardAlpha" operator="arithmetic" k2="-1" k3="1"/>
<feColorMatrix type="matrix" values="0 0 0 0 0 0 0 0 0 0 0 0 0 0 0 0 0 0 0.25 0"/>
<feBlend mode="normal" in2="shape" result="effect1_innerShadow_1407_1852"/>
</filter>
<clipPath id="clip0_1407_1852">
<rect width="17" height="17" fill="white" transform="translate(1.62598 11.6299) rotate(-36.048)"/>
</clipPath>
</defs>
</svg>
